Coordinates
version=1
nRows=14
nColumns=36
inDegrees=yes

Units are S.I. units (second, meters, Newtons, ...)
If the header above contains a line with 'inDegrees', this indicates whether rotational values are in degrees (yes) or radians (no).

endheader
time	pelvis_tilt	pelvis_list	pelvis_rotation	pelvis_tx	pelvis_ty	pelvis_tz	hip_flexion_r	hip_adduction_r	hip_rotation_r	knee_angle_r	knee_angle_r_beta	ankle_angle_r	subtalar_angle_r	mtp_angle_r	hip_flexion_l	hip_adduction_l	hip_rotation_l	knee_angle_l	knee_angle_l_beta	ankle_angle_l	subtalar_angle_l	mtp_angle_l	lumbar_extension	lumbar_bending	lumbar_rotation	arm_flex_r	arm_add_r	arm_rot_r	elbow_flex_r	pro_sup_r	arm_flex_l	arm_add_l	arm_rot_l	elbow_flex_l	pro_sup_l
      5.15000000	    -12.16471492	      0.94662433	     -5.44949258	      0.66051951	      0.83835627	      0.03442777	     55.68286813	      5.03324486	      8.01414487	     75.87962068	      1.32434922	     30.46786233	    -16.37973823	     -7.49999987	     52.96072800	     -1.26978185	      4.50677038	     74.36859372	      1.29797682	     28.41485907	    -26.12125146	     -7.49999987	     -7.93940054	      3.69583335	     -1.36232874	     -3.15968506	    -23.84706172	     11.39221794	    108.69932256	     90.87784616	     -3.93822889	    -19.35985476	      7.57764228	    114.21494357	     92.16704027
      5.16666670	    -12.00233914	      0.85937963	     -4.86995352	      0.65745330	      0.84849842	      0.03362306	     54.43725928	      4.74942096	      7.91907452	     73.19275551	      1.27745457	     30.04073109	    -16.81388401	     -7.49999987	     52.21112188	     -0.69678718	      5.05896133	     71.78702445	      1.25291994	     27.51737903	    -26.98637741	     -7.49999987	     -7.08265602	      3.73775383	     -1.25246824	      0.34130225	    -22.85896606	     14.18611538	    112.00156542	     91.21989209	     -0.11134978	    -18.32877458	      9.11865395	    115.30710624	     92.02349203
      5.18333330	    -11.64411726	      0.46320407	     -4.16455845	      0.65663036	      0.85786650	      0.03432374	     52.05302402	      4.45502134	      7.54665501	     69.80049958	      1.21824854	     30.15489152	    -16.48238681	     -7.49999987	     50.50403404	     -0.55526981	      5.79647896	     69.19706650	      1.20771664	     27.43116062	    -26.57899847	     -7.49999987	     -6.03798469	      3.95831183	     -1.26788913	      3.56805138	    -21.96409217	     16.20359102	    114.22535072	     90.36725504	      3.11734629	    -17.65557307	     10.39221533	    115.59546457	     90.35327169
      5.20000000	    -11.22919613	      0.21687466	     -3.71446109	      0.65899405	      0.87131115	      0.03278863	     49.55384341	      3.97156289	      7.26647258	     66.18685575	      1.15517855	     29.32391133	    -16.42671673	     -7.49999987	     48.33829687	     -0.62494057	      6.04399804	     66.24059052	      1.15611640	     26.35319882	    -25.67719032	     -7.49999987	     -5.16937326	      3.86627835	     -1.28630346	      7.23489118	    -21.35354840	     17.61178040	    115.52807577	     90.65927657	      6.25438311	    -17.59428223	     11.82578108	    115.69467858	     89.97147487
      5.21666670	    -11.69260169	      0.07615775	     -3.35766090	      0.66186607	      0.88257128	      0.03305607	     47.75228566	      3.61030337	      7.13354744	     62.26706327	      1.08676527	     28.89010803	    -15.79803622	     -7.49999987	     47.03376869	     -0.85083543	      6.08113034	     63.19620249	      1.10298181	     25.77818151	    -25.10805156	     -7.49999987	     -2.38913684	      3.50716721	     -1.22424763	     10.49480676	    -20.47457200	     17.60147867	    115.01578167	     88.75907002	      8.74413824	    -17.22259299	     12.22094892	    114.78885236	     87.95210096
      5.23333330	    -10.62964396	     -0.40538569	     -3.00505788	      0.66187023	      0.90007357	      0.03368167	     43.82263819	      3.37791106	      6.55253687	     57.73211665	      1.00761552	     28.19680449	    -14.76589702	     -7.49999987	     43.60035468	     -1.33593696	      6.43367293	     59.58769115	      1.04000140	     23.80678021	    -24.57039193	     -7.49999987	     -2.43975204	      3.49491433	     -1.79835522	     14.54157033	    -20.80317197	     19.79290056	    114.40468371	     91.75415854	     11.55277134	    -18.55607104	     14.25040404	    114.88531828	     84.90464167
      5.25000000	    -10.31528437	     -0.64137300	     -2.80870724	      0.66455449	      0.92111963	      0.03462211	     40.06137530	      2.91302785	      5.81643241	     51.58064258	      0.90025204	     26.39580754	    -13.87631240	     -7.49999987	     40.03252409	     -1.85111323	      6.38860813	     54.50835971	      0.95135035	     23.44267802	    -22.27701891	     -7.49999987	     -1.12274625	      3.08428795	     -2.07470821	     15.91429422	    -20.67144570	     20.30988527	    112.96226120	     90.68681415	     12.59028167	    -19.15708806	     15.14565194	    114.35210244	     84.08672764
      5.26666670	     -9.92828738	     -1.02375937	     -2.30705730	      0.66715345	      0.93826699	      0.03545575	     36.36614346	      2.54407872	      4.66702476	     45.61605429	      0.79615034	     24.20733933	    -12.98995353	     -7.49999987	     36.67473373	     -2.51766692	      6.09432946	     49.23296473	      0.85927734	     21.32851956	    -21.30325870	     -7.49999987	     -0.19947822	      3.06540906	     -2.30354892	     16.66442303	    -20.77088151	     20.55384910	    113.41273643	     90.74518464	     12.88110956	    -19.61010008	     15.49241134	    114.72665121	     83.74005248
      5.28333330	     -9.42873905	     -1.10501110	     -2.08204284	      0.66738709	      0.95844730	      0.03533071	     32.60630001	      2.07024898	      3.42076325	     39.40286665	      0.68770976	     21.43040062	    -12.15729195	     -7.49999987	     33.04935655	     -3.07393799	      5.12746782	     43.60602514	      0.76106871	     18.85634630	    -20.95314148	     -7.49999987	      0.14481374	      2.92047549	     -2.22267195	     17.80305781	    -21.24100812	     21.38447998	    114.53000040	     91.23472261	     13.45411361	    -20.12047618	     15.77600579	    114.96875407	     83.36667844
      5.30000000	     -8.79431748	     -1.15294961	     -1.72321079	      0.66880543	      0.97426814	      0.03574614	     28.75303561	      1.45325690	      1.68471505	     33.30050691	      0.58120349	     18.72156080	    -10.51124012	     -7.49999987	     29.27085400	     -3.57129789	      3.99384901	     37.64810120	      0.65708332	     16.62833526	    -19.53855426	     -7.49999987	      0.26368161	      2.75506100	     -2.01051422	     18.11759439	    -21.81994094	     21.67449517	    115.66100571	     91.14834005	     13.88550479	    -20.33568275	     15.91295166	    115.10167990	     82.86871197
      5.31666670	     -8.48472998	     -0.96183163	     -1.61167873	      0.67469524	      0.99132599	      0.03645881	     24.80362498	      0.90388532	      0.12595560	     26.54548546	      0.46330612	     15.73610943	     -8.27263581	     -7.49999987	     25.39861543	     -3.84280861	      2.39423717	     31.17978895	      0.54418998	     14.44720642	    -17.10491822	     -7.49999987	      0.89679377	      2.18297589	     -2.12964278	     17.56152910	    -21.96725053	     21.33609053	    116.52047282	     90.95221090	     13.40788271	    -20.48839434	     15.71591935	    115.78295364	     82.94180704
      5.33333330	     -7.88098435	     -0.90946481	     -1.43021223	      0.68231719	      1.00633818	      0.03743528	     20.22028815	      0.65351754	     -1.97238399	     19.60149165	      0.34211057	     12.97438122	     -6.11114652	     -7.49999987	     21.16375543	     -4.12170880	      0.58358415	     24.79085938	      0.43268212	     12.08188912	    -14.35119275	     -7.49999987	      1.25863925	      1.68910399	     -2.34812998	     16.43791189	    -21.92475665	     20.65419316	    117.38007438	     90.18732019	     13.06993015	    -20.89220920	     15.75919387	    116.82461050	     82.53405829
      5.35000000	     -7.00348342	     -0.70452094	     -0.97987626	      0.68671278	      1.01848326	      0.03628309	     16.04314908	      0.28999118	     -4.10436759	     14.07823646	      0.24571158	     10.90061844	     -3.34591185	     -7.49999987	     17.24581399	     -4.00030310	     -1.25023062	     19.50338790	      0.34039833	      9.50766964	    -11.62695147	     -7.49999987	      1.28228871	      0.94447239	     -1.07498980	     14.22947444	    -22.58389516	     18.15215172	    119.27163397	     90.22110899	     14.35345425	    -20.98136084	     18.01843627	    116.92532262	     78.15945624
      5.36666670	     -6.53758425	     -0.40819109	     -0.74239668	      0.68798435	      1.02558424	      0.03515985	     13.06127479	     -0.00778465	     -5.61505799	      9.82842764	      0.17153842	      8.89793513	     -1.27955236	     -7.49999987	     14.23902642	     -3.69284537	     -3.29760411	     15.03489883	      0.26240849	      7.45262085	     -8.80288377	     -7.49999987	      1.49904256	      0.33406992	     -1.20274576	     14.00653584	    -23.05531562	     17.52861206	    120.29015136	     90.12709257	     14.11154118	    -21.48788403	     17.84131510	    118.34948095	     77.86270667
